<?xml version="1.0" encoding="UTF-8" standalone="no"?>
<svg
   xmlns:dc="http://purl.org/dc/elements/1.1/"
   xmlns:cc="http://creativecommons.org/ns#"
   xmlns:rdf="http://www.w3.org/1999/02/22-rdf-syntax-ns#"
   xmlns:svg="http://www.w3.org/2000/svg"
   xmlns="http://www.w3.org/2000/svg"
   id="svg8"
   version="1.1"
   viewBox="0 0 15.875 15.875"
   height="60"
   width="60">
  <defs
     id="defs2" />
  <metadata
     id="metadata5">
    <rdf:RDF>
      <cc:Work
         rdf:about="">
        <dc:format>image/svg+xml</dc:format>
        <dc:type
           rdf:resource="http://purl.org/dc/dcmitype/StillImage" />
        <dc:title></dc:title>
      </cc:Work>
    </rdf:RDF>
  </metadata>
  <path
     id="path1462"
     d="m 7.9543165,5.9531249 c 0,0 -1.2291752,-1.7642037 -3.0942795,0.1009006 0,0 -0.7724651,1.0575408 -2.8588453,0 C 0.35462184,5.219415 0.7903867,4.1201007 0.7903867,4.1201007 c 0,0 0.2529742,-0.167435 0.4789339,-0.457175 C 1.6247063,3.2072273 2.1363049,2.5728989 3.19518,2.757945 c 0,0 0.8912869,-0.05045 1.8330242,-1.3285223 0,0 -0.5549525,3.9182993 2.7327197,1.1519463 0,0 -0.7049929,1.8157066 0.1933926,3.3717559 z"
     style="fill:none;stroke:#f5673b;stroke-width:0.3175;stroke-linecap:butt;stroke-linejoin:round;stroke-miterlimit:4;stroke-dasharray:none;stroke-opacity:1" />
  <path
     id="path1468"
     d="M 3.4318924,6.3704722 C 2.7558629,6.3000047 1.835486,5.8920788 1.3802326,5.4611435 1.1470964,5.2404606 1.0250348,5.0631094 0.9413762,4.8234998 0.8934946,4.6863604 0.8714688,4.4558681 0.8914927,4.3014854 0.9016149,4.2234449 0.9116034,4.2048307 0.9651509,4.1642174 1.0828798,4.0749256 1.277052,3.8740949 1.4481466,3.6646579 1.6307485,3.4411352 1.8527151,3.2178515 1.9772446,3.1324207 2.278689,2.9256208 2.6149144,2.8426353 3.0101201,2.8774915 3.2402594,2.8977904 3.3194352,2.8892999 3.5185268,2.8229712 3.909356,2.6927666 4.3045522,2.4308249 4.6773083,2.0549146 l 0.17047,-0.1719122 0.010099,0.2728127 C 4.9040597,3.4032543 5.4417208,3.9281686 6.3603332,3.6226505 6.6507822,3.5260514 6.9875513,3.3425134 7.3316406,3.093292 7.4883993,2.9797527 7.4968731,2.9757848 7.4872243,3.0204382 7.312721,3.82801 7.3194526,4.5839029 7.507076,5.2496353 c 0.017595,0.062432 0.029629,0.1135132 0.026742,0.1135132 -0.00289,0 -0.051443,-0.027074 -0.1079035,-0.060164 C 6.9897659,5.0473645 6.4510832,4.9925363 5.9644724,5.1542356 5.5738421,5.2840409 5.0873562,5.6119965 4.7183719,5.994271 4.5635137,6.1547069 4.4121535,6.2431788 4.1749167,6.3119276 3.9384845,6.3804428 3.7044503,6.3988829 3.4318916,6.3704722 Z M 2.2657255,4.6371165 C 2.3704154,4.606002 2.4843361,4.5063369 2.5403066,4.3968952 2.5837139,4.3120192 2.5910053,4.2792455 2.5907076,4.1703491 2.5899139,3.8832442 2.3886532,3.6820341 2.1018519,3.6816391 1.9038142,3.6813745 1.7490707,3.7762784 1.6529204,3.9569923 c -0.052793,0.099225 -0.052793,0.3251107 0,0.4243356 0.128646,0.2417892 0.349597,0.3340155 0.6128051,0.2557886 z"
     style="fill:#f5673b;fill-opacity:1;stroke:none;stroke-width:0;stroke-linecap:round;stroke-linejoin:round;stroke-miterlimit:4;stroke-dasharray:none;stroke-opacity:1" />
  <path
     id="path1462-9"
     d="m 15.312013,9.9556706 c 0,0 -1.229175,-1.7642035 -3.094279,0.1009004 0,0 -0.772465,1.057542 -2.8588466,0 -1.6465695,-0.8346102 -1.210805,-1.9339244 -1.210805,-1.9339244 0,0 0.252975,-0.1674349 0.478934,-0.457175 0.355386,-0.4556984 0.866985,-1.0900268 1.9258606,-0.9049807 0,0 0.891286,-0.05045 1.833024,-1.3285223 0,0 -0.554953,3.9182992 2.73272,1.1519463 0,0 -0.704993,1.8157065 0.193392,3.3717557 z"
     style="fill:none;stroke:#f5673b;stroke-width:0.31750003;stroke-linecap:butt;stroke-linejoin:round;stroke-miterlimit:4;stroke-dasharray:none;stroke-opacity:1" />
  <path
     id="path1468-7"
     d="M 10.789589,10.373018 C 10.11356,10.30255 9.1931824,9.8946251 8.7379284,9.4636901 8.5047924,9.2430068 8.3827304,9.0656552 8.2990724,8.8260456 8.2511904,8.6889063 8.2291644,8.458414 8.2491884,8.3040312 c 0.01012,-0.078041 0.02011,-0.096655 0.07366,-0.137268 0.117729,-0.089292 0.311902,-0.2901224 0.482996,-0.4995594 0.182602,-0.2235226 0.404569,-0.4468064 0.529098,-0.5322371 0.301445,-0.2068 0.6376708,-0.2897855 1.0328766,-0.2549293 0.230139,0.020299 0.309315,0.011808 0.508406,-0.05452 0.39083,-0.1302046 0.786026,-0.3921463 1.158782,-0.7680565 l 0.17047,-0.1719122 0.0101,0.2728126 c 0.04618,1.2474392 0.583844,1.7723534 1.502456,1.4668354 0.290449,-0.096599 0.627218,-0.2801371 0.971307,-0.5293584 0.156759,-0.1135394 0.165233,-0.1175073 0.155584,-0.072854 -0.174503,0.8075719 -0.167772,1.5634647 0.01985,2.2291975 0.0176,0.06243 0.02963,0.113513 0.02674,0.113513 -0.0029,0 -0.05144,-0.02707 -0.107904,-0.06016 -0.436148,-0.2556202 -0.974831,-0.3104485 -1.461442,-0.1487492 -0.39063,0.1298052 -0.877116,0.4577615 -1.2461,0.840036 -0.154859,0.1604364 -0.306219,0.2489084 -0.543456,0.3176564 -0.236432,0.06852 -0.470466,0.08696 -0.743025,0.05855 z M 9.6234214,8.6396623 c 0.10469,-0.031115 0.2186118,-0.1307796 0.2745818,-0.2402213 0.04341,-0.084876 0.0507,-0.1176496 0.0504,-0.226546 -7.93e-4,-0.2871049 -0.202055,-0.4883149 -0.4888558,-0.48871 -0.198038,-2.646e-4 -0.352782,0.094639 -0.448932,0.2753531 -0.05279,0.099225 -0.05279,0.3251108 0,0.4243356 0.128646,0.2417892 0.349597,0.3340156 0.612806,0.2557886 z"
     style="fill:#f5673b;fill-opacity:1;stroke:none;stroke-width:0;stroke-linecap:round;stroke-linejoin:round;stroke-miterlimit:4;stroke-dasharray:none;stroke-opacity:1" />
  <path
     id="path1462-6"
     d="m 8.1480828,13.403102 c 0,0 -1.2291754,-1.764203 -3.0942796,0.100901 0,0 -0.7724651,1.057541 -2.8588454,0 -1.64656986,-0.83461 -1.2108051,-1.933925 -1.2108051,-1.933925 0,0 0.2529743,-0.167435 0.478934,-0.457175 0.3553857,-0.455698 0.8669843,-1.090028 1.9258594,-0.904981 0,0 0.8912868,-0.05045 1.8330244,-1.3285223 0,0 -0.5549527,3.9182993 2.7327193,1.1519463 0,0 -0.7049926,1.815707 0.193393,3.371756 z"
     style="fill:none;stroke:#f5673b;stroke-width:0.31750003;stroke-linecap:butt;stroke-linejoin:round;stroke-miterlimit:4;stroke-dasharray:none;stroke-opacity:1" />
  <path
     id="path1468-8"
     d="M 3.6256585,13.82045 C 2.949629,13.749982 2.0292521,13.342056 1.5739986,12.911121 1.3408624,12.690438 1.2188009,12.513087 1.1351422,12.273477 c -0.047882,-0.137139 -0.069907,-0.367631 -0.049883,-0.522014 0.010122,-0.07804 0.020111,-0.09666 0.073658,-0.137268 0.117729,-0.08929 0.3119011,-0.290123 0.4829958,-0.49956 0.1826016,-0.223522 0.4045682,-0.446806 0.5290977,-0.532237 0.3014444,-0.206801 0.6376698,-0.289786 1.0328755,-0.25493 0.2301394,0.0203 0.3093151,0.01181 0.5084067,-0.05452 0.3908293,-0.130205 0.7860255,-0.3921465 1.1587816,-0.7680563 l 0.17047,-0.1719122 0.010099,0.272813 c 0.046182,1.2474395 0.5838435,1.7723535 1.5024559,1.4668355 0.290449,-0.0966 0.6272181,-0.280137 0.9713074,-0.529358 0.1567587,-0.113541 0.1652325,-0.117509 0.1555837,-0.07285 -0.1745033,0.807573 -0.1677718,1.563465 0.019852,2.229198 0.017595,0.06243 0.029629,0.113513 0.026742,0.113513 -0.00289,0 -0.051444,-0.02707 -0.1079035,-0.06016 -0.436149,-0.255628 -0.9748316,-0.310456 -1.4614425,-0.148757 -0.3906303,0.129805 -0.8771162,0.457761 -1.2461004,0.840035 -0.1548582,0.160436 -0.3062184,0.248908 -0.5434552,0.317657 -0.2364322,0.06851 -0.4704665,0.08695 -0.7430252,0.05855 z M 2.4594916,12.087094 c 0.1046899,-0.03112 0.2186106,-0.13078 0.2745811,-0.240221 0.043407,-0.08488 0.050699,-0.11765 0.050401,-0.226546 -7.937e-4,-0.287105 -0.2020544,-0.488315 -0.4888557,-0.48871 -0.1980377,-2.65e-4 -0.3527812,0.09464 -0.4489316,0.275353 -0.052793,0.09923 -0.052793,0.325111 0,0.424335 0.1286461,0.24179 0.3495971,0.334016 0.6128052,0.255789 z"
     style="fill:#f5673b;fill-opacity:1;stroke:none;stroke-width:0;stroke-linecap:round;stroke-linejoin:round;stroke-miterlimit:4;stroke-dasharray:none;stroke-opacity:1" />
</svg>
